/* XPM */
static char *_32de3e719bb4915bde810f055bce503APYgmEUo7EfAKFA1[] = {
/* columns rows colors chars-per-pixel */
"32 32 15 1 ",
"  c #145E53",
". c #11727A",
"X c #967441",
"o c #9F844D",
"O c #AF8F55",
"+ c #B8945F",
"@ c #C29D62",
"# c #1C919A",
"$ c #1AAAA7",
"% c #20C5B5",
"& c #2CE0D8",
"* c #4AEDD9",
"= c #A1FBE8",
"- c #D5FFF6",
"; c white",
/* pixels */
"+@@@@@@@@@@@@@@@@@@@@@@@@@@@@@@+",
"@oOOooO++OooO+++++++++++++++OOO@",
"@oooOO++OoOO........OOOOOO+++++@",
"@OoO+++OOO+.;;;;;;;- +++++OOOoo@",
"@++++OO+++.;==*****=- OOO+++++O@",
"@OOOO++++.;=********-* ++OOO+++@",
"@++++++O.;*=******==-*% ++++OOO@",
"@OOOOOO.;=**=***===-=**% O+++++@",
"@++++++.;***-======-**** +OOO++@",
"@+++OO.;=***=-====-=****$ +++OO@",
"@oXXXo.;==*=;;;;--;-=***% XXXoo@",
"@++@@.;;;-=;===***==-=*%%$ @+++@",
"@++Oo.;-*=;===***====$%%%$ OOOO@",
"@Ooo+.;=**;==***====*$%%%$ ++++@",
"@+OoO.;=**-=***====**#%%%$ +OOO@",
"@+++O.;***-***====***#%%%$ ooO+@",
"@OO++.;***-**====***%#%%%$ ++++@",
"@++OO.;=*==%*===***%#$$%%$ OOOO@",
"@O+++.;;=**&$$$$$$$$%%%$$$ ++++@",
"@oOOO.-=***$%%%%%%%%$%%%%# OOO+@",
"@OooOo ***%$%%%%%%%%$%%%% oooOO@",
"@XXXXo &**$%%%%%%%%%%$%%% XXooo@",
"@++@@@@ &&$%%%%%%%%%%$%* @@@+@+@",
"@++++++ &%$%%%%%%%%%%$%* OO++++@",
"@OOOOO++ #$%%%%%%%%%%%= OO+++++@",
"@+++++OO+  #****===*%  O++++OOO@",
"@+OooO+OOOO          ++++OooO++@",
"@ooOOoO+++OO+++++++++++oO++++++@",
"@OooO+++OOO+++OOOOOOOOoO+++++Oo@",
"@++++++OO++OOo++++++++OoOO++OoO@",
"@OOOOOO++OO++++OOOOOO++++OO+++O@",
"+@@@@@@@@@@@@@@@@@@@@@@@@@@@@@@+"
};
