/* XPM */
static char *xpm_[] = {
/* columns rows colors chars-per-pixel */
"32 32 31 1 ",
"  c #281E08",
". c #281D0A",
"X c #221D2C",
"o c #182C39",
"O c #282C2C",
"+ c #393939",
"@ c #493616",
"# c #684E1E",
"$ c #2A4455",
"% c #444444",
"& c #515555",
"* c #525858",
"= c #406278",
"- c #626262",
"; c #626868",
": c #686E6E",
"> c #737777",
", c #737979",
"< c #A8002F",
"1 c #FF0048",
"2 c #9F844D",
"3 c #AF8F55",
"4 c #B8945F",
"5 c #C29D62",
"6 c #888E8E",
"7 c #8E9393",
"8 c #959B9B",
"9 c #95A0A0",
"0 c #C1C1C1",
"q c gray85",
"w c white",
/* pixels */
"45555555o555555555o$$$o555555554",
"5233223443223444oo$=$oo444443335",
"52223344o233444$$==$$X33334o4445",
"5323444$$o4443o$==$$oX4444oo3225",
"5444433$oX433Xo$$$$oX33334$$o435",
"5333344O&&&&&&&&&&&&&&&&O3=$$o45",
"54o4444&9987778888999888&o$==$o5",
"5ooo333&9988777888898888&$==$ooo",
"5ooo44o&9888778888888988&o$$o$oo",
"oo=oooo&9888878888888898&$$ooXoX",
"oo==o$o&9888888888888899&ooXoXXX",
"ooo=$$$&8888888888887789&Xo5XXX5",
"5o$$=$o&7778888888877777&o333XX5",
"5$$$$$OOOO>7788887777>OOOO444X45",
"54o$$OOOOOO;77777777;OOOOOO43335",
"544ooOOOOOOOO>7777>OOOOOOOO22345",
"533444OOOOOOOO>77>OOOOOOOO444445",
"5443344+OOOOOO;;;;OOOOOO+4333335",
"5344433+OO<11<OOOO<11<OO+3444445",
"5233  4+OOO<11OOOO11<OOO+4  3345",
"5322# %&,OOOOO::::OOOOO,&% #2335",
"----%%0&666,OO::::OO,666&0%%----",
"w0000q0&6666**::::**6666&0q0000w",
"w00000q&,666**::::**666,&q00000w",
"w00000q&:666**::::**666:&q00000w",
"wq00000+:,66**::::**66,:+00000qw",
"-w00000OOOOOOO::::OOOOOOO00000w-",
"-wq00000-@@.44::::44.@@-00000qw-",
"5-wq000-3.@.44333333 @ 3-000qw-5",
"54-wq00-34@@.244444.@@32-00qw-35",
"533-www-43.@..4333..@ 44-www-435",
"4555---5555.@.5555.@ 5555---5554"
};
