/* XPM */
static char *xpm_[] = {
/* columns rows colors chars-per-pixel */
"32 32 5 1 ",
"  c #C29D62",
". c #B8945F",
"X c #AF8F55",
"o c #9F844D",
"O c #967441",
/* pixels */
".                              .",
" oXXooX..XooX...............XXX ",
" oooXX..XoXX....XXXXXXXXXX..... ",
" XoX...XXX...XXXX.........XXXoo ",
" ....XX....XXX......XXXXX.....X ",
" XXXX....XX.....XXXX.....XXX... ",
" ......XX....XXX............XXX ",
" XXXXXX...XXX.....XooXXXXX..... ",
" .......XX....XXXX........XXX.. ",
" ...XXXX...XXoX.....XXXXX....XX ",
" oOOOoooooOOoOOOooooooOoOOOOOoo ",
" ..   . ...  .        . .   ... ",
" ..XoX.XoooX...XXX...XX...XXXXX ",
" Xoo..XoXXooXX..XoX...XX....... ",
" .XoX...oXXXX..XX....XX.....XXX ",
" ...XX.......XX....XX....XXooX. ",
" XX...XXXXooX...XXX....XX...... ",
" ..XX........XXX.....XX...XXXXX ",
" X...XXXXXXXX.....XXX...XX..... ",
" oXXX.........XXXXX...XX...XXX. ",
" XooXoXXXXXXXXX.....XXX..XoooXX ",
" OOOOoOoooooooOOOOOOOOoOooOOooo ",
" ..        .   .....  ..    . . ",
" ......XXX....XoooXoXX...XX.... ",
" XXXXX...XXX....XooX...XXX..... ",
" .....XX....XXX......XXX....XXX ",
" .XooX.XXXX....XXXXXX....XooX.. ",
" ooXXoX...XX...........oX...... ",
" XooX...XXX...XXXXXXXXoX.....Xo ",
" ......XX..XXo........XoXX..XoX ",
" XXXXXX..XX....XXXXXX....XX...X ",
".                              ."
};
