/* XPM */
static char *_ba3bc6a21254b15a9629ac7729a7fd2v0XJTkS1M1IiOd8l[] = {
/* columns rows colors chars-per-pixel */
"32 32 185 2 ",
"   c #1F1915",
".  c #3C190F",
"X  c #251B15",
"o  c #2C1E16",
"O  c #261E1B",
"+  c #3C1D12",
"@  c #2C221F",
"#  c #382117",
"$  c #1A2524",
"%  c #232726",
"&  c #2A2D26",
"*  c #3A362B",
"=  c #3E3A2C",
"-  c #283E3E",
";  c #3A3C34",
":  c #4A1B0D",
">  c #531F0D",
",  c #421D10",
"<  c #4F200F",
"1  c #55220E",
"2  c #5B230F",
"3  c #442314",
"4  c #4B2413",
"5  c #4D2816",
"6  c #4D2A1A",
"7  c #562512",
"8  c #542A15",
"9  c #5C2917",
"0  c #502A19",
"q  c #63270E",
"w  c #67280F",
"e  c #622511",
"r  c #652C12",
"t  c #6C2B12",
"y  c #622C1A",
"u  c #722D13",
"i  c #7E2F13",
"p  c #6C3415",
"a  c #64331C",
"s  c #6D341C",
"d  c #743313",
"f  c #7B3314",
"g  c #7D3A16",
"h  c #733519",
"j  c #7E371A",
"k  c #7D3B1B",
"l  c #563A26",
"z  c #523D2A",
"x  c #463D32",
"c  c #583F37",
"v  c #3B4234",
"b  c #30473E",
"n  c #3E4239",
"m  c #394A3D",
"M  c #45402F",
"N  c #5B462D",
"B  c #4B4433",
"V  c #474838",
"C  c #534A35",
"Z  c #46503E",
"A  c #585036",
"S  c #5B533A",
"D  c #56583E",
"F  c #66462C",
"G  c #6E462D",
"H  c #61492C",
"J  c #764C2B",
"K  c #7D502D",
"L  c #6B4732",
"P  c #634C32",
"I  c #6C4D34",
"U  c #754F34",
"Y  c #66523D",
"T  c #66563D",
"R  c #7E5433",
"E  c #795436",
"W  c #78633F",
"Q  c #2E4944",
"!  c #2C4946",
"~  c #32554F",
"^  c #3B544A",
"/  c #3F6459",
"(  c #3B6D5D",
")  c #3C745F",
"_  c #386E60",
"`  c #3E7562",
"'  c #414F48",
"]  c #475948",
"[  c #535F4F",
"{  c #4F5F51",
"}  c #605640",
"|  c #635C4D",
" . c #685E4A",
".. c #775A49",
"X. c #4C6547",
"o. c #53634B",
"O. c #426152",
"+. c #4D6453",
"@. c #466659",
"#. c #5A6651",
"$. c #41735E",
"%. c #6A6743",
"&. c #6A624D",
"*. c #766D47",
"=. c #7A6B41",
"-. c #656B55",
";. c #7F7657",
":. c #437A62",
">. c #833515",
",. c #843916",
"<. c #8C3C15",
"1. c #80371B",
"2. c #83391A",
"3. c #8E3E1B",
"4. c #913B19",
"5. c #983A18",
"6. c #813F23",
"7. c #84421A",
"8. c #8E4519",
"9. c #96411B",
"0. c #9D461B",
"q. c #A54D1B",
"w. c #AF581D",
"e. c #B65D1F",
"r. c #BC5B1F",
"t. c #B7601F",
"y. c #874728",
"u. c #86512A",
"i. c #845232",
"p. c #8A5F38",
"a. c #C25F1F",
"s. c #CF7526",
"d. c #D07626",
"f. c #875E48",
"g. c #8D5C4C",
"h. c #995C4D",
"j. c #836543",
"k. c #8A6D43",
"l. c #926B4B",
"z. c #877445",
"x. c #8B7446",
"c. c #8D754A",
"v. c #967441",
"b. c #9A7646",
"n. c #92744B",
"m. c #947B4A",
"M. c #9C7E4B",
"N. c #876F55",
"B. c #936453",
"V. c #8D7359",
"C. c #8A7B58",
"Z. c #9B7553",
"A. c #957D52",
"S. c #9C7E52",
"D. c #A37E4E",
"F. c #A76653",
"G. c #B4765F",
"H. c #9C7661",
"J. c #BF7F65",
"K. c #4E805E",
"L. c #468064",
"P. c #4B8263",
"I. c #4E8C69",
"U. c #528B66",
"Y. c #518F6A",
"T. c #55976D",
"R. c #5EA16F",
"E. c #5EA271",
"W. c #62A771",
"Q. c #9F844D",
"!. c #978256",
"~. c #9D8353",
"^. c #A2824E",
"/. c #A58354",
"(. c #A48656",
"). c #A98555",
"_. c #AF8F55",
"`. c #AA875A",
"'. c #AB8E5E",
"]. c #B18F5C",
"[. c #B6925E",
"{. c #B8945F",
"}. c #BE995F",
"|. c #C29D62",
" X c #E59872",
/* pixels */
"{.|.|.|.|.|.|.|.|.|.|.|.}.{.D.U R ).}.}.|.|.|.|.|.|.|.|.|.|.|.{.",
"|.Q._._.Q.Q._.{.{._.Q.k.J a l Z Z l a R /.[.{.{.{.{.{.{._._._.|.",
"|.Q.Q.Q._._.{.{._.Q.b.u.8.f 6 m m 6 q p K M._._._._.{.{.{.{.{.|.",
"|._.Q._.{.{.{._._.b.i.2.f t r 5 8 r q u j i./.[.{.{._._._.Q.Q.|.",
"|.{.{.{.{._._.{./.i.1.f u 3.,.r ,.q.4.t f j R ^._.{.{.{.{.{._.|.",
"|._._._._.{.{.{.S.F h ,.0.r.q.g 0.a.r.9.,.s I (.{._._._.{.{.{.|.",
"|.{.{.{.{.{.{._.m.N 8 f <.,.d d g f ,.<.d 8 P (.{.{.{.{._._._.|.",
"|._._._._._._.{.S.z 4 f 4.5.i w w >.5.<.f 3 N Q._._.{.{.{.{.{.|.",
"|.{.{.{.{.{.{.{.m.z , f e.d.w.f f t.s.w.d + N (.{.{._._._.{.{.|.",
"|.{.{.{._._._._.S.z . 7 h 7.g f d g 7.p 1 + N Q._.{.{.{.{._._.|.",
"|.Q.v.v.v.Q.Q.Q.x.H 4 + # 6 0 s a 6 6 # + 5 H m.v.v.v.v.v.Q.Q.|.",
"|.{.{.|.|.|.{.|.[./.R a 3 o X   X X o 5 a p.).|.{.|.|.|.{.{.{.|.",
"|.{.{._.Q._.{._.Q.Q.k.G 9 7 8 3 3 4 9 y U M._.{.{.{._._._._._.|.",
"|._.Q.Q.{.{._.Q._.(.*.] B 5 < 2 1 : 0 V [ C.)._.{.{.{.{.{.{.{.|.",
"|.{._.Q._.{.{.{.Q.A.#.` K.] v * * v X.P.( #.~.{.{.{.{.{._._._.|.",
"|.{.{.{._._.{.{.'.;.@._ :.Y.I.) ) Y.I.` ( +.C.].{._._.Q.Q._.{.|.",
"|._._.{.{.{._._.!.#.:.L.( U.R.T.T.R.P.( P.$.-.~._.{.{.{.{.{.{.|.",
"|.{.{._._.{.{.{./.| @.P.( P.E.W.W.R.:.$.P.O. .`.{.{._._._._._.|.",
"|._.{.{.{._._./.l.B.H.N.S S =.x.z.=.A Y V.H.B.Z.)._.{.{.{.{.{.|.",
"|.Q._._._.{.{./.g.J. Xh.c D %.Y Y %.D c F. XG.f.`.{.{._._._.{.|.",
"|._.Q.Q._.Q._.).n.g.g...O.( O.x M / ( { ..g.g.Z.]._.Q.Q.Q._._.|.",
"|.v.v.v.v.Q.v.Q.M.k.j.*.+.^ z 7 7 B ^ o.W E k.v.Q.Q.v.v.Q.Q.Q.|.",
"|.{.{.|.|.|.|.|.|.|.|.!. .L h > 1 k L &.'.|.{.{.|.|.|.|.{.|.{.|.",
"|.{.{.{.{.{.{._._._.{.A.I y.4.2 e 9.6.P m._.{.{.{._._.{.{.{.{.|.",
"|._._._._._.{.{.{._._.x.F k 2.> e 3.s N ~.{.{._._._.{.{.{.{.{.|.",
"|.{.{.{.{.{._._.{.{.[.n.B n ; O @ n v C S._._._.{.{.{.{._._._.|.",
"|.{._.Q.Q._.{._._._.m.} ' / ! $ $ ~ @.' T (.{.{.{._.Q.Q._.{.{.|.",
"|.Q.Q._._.Q._.{.{.{.n.C ! ~ - % % ! ~ b S /.{.Q._.{.{.{.{.{.{.|.",
"|._.Q.Q._.{.{.{._._.).c.B & M =.W = & C c._.Q._.{.{.{.{.{._.Q.|.",
"|.{.{.{.{.{.{._._.{.{.).Q.z.(.[.]./.S.).[.{._.Q._._.{.{._.Q._.|.",
"|._._._._._._.{.{._._.{.{.{.{._._._._._._.{.{.{.{._._.{.{.{._.|.",
"{.|.|.|.|.|.|.|.|.|.|.|.|.|.|.|.|.|.|.|.|.|.|.|.|.|.|.|.|.|.|.{."
};
