/* XPM */
static char *_6e76d7d53384e08b150d39c2e7bb1626AjNY5tGhzudTnxU[] = {
/* columns rows colors chars-per-pixel */
"32 32 180 2 ",
"   c #161E1F",
".  c #181D1E",
"X  c #3E1F14",
"o  c #3B2417",
"O  c #312019",
"+  c #352B1F",
"@  c #182124",
"#  c #1D2B2C",
"$  c #1A2B32",
"%  c #1F3237",
"&  c #1F353E",
"*  c #222424",
"=  c #2C2328",
"-  c #3E362F",
";  c #262D30",
":  c #21363E",
">  c #263938",
",  c #521F0C",
"<  c #5B220E",
"1  c #422617",
"2  c #492515",
"3  c #43281A",
"4  c #4C2A19",
"5  c #522312",
"6  c #5B2712",
"7  c #562916",
"8  c #5B2A14",
"9  c #542E19",
"0  c #5E351A",
"q  c #5B3B1F",
"w  c #622C13",
"e  c #6B2C12",
"r  c #6E2F18",
"t  c #732D13",
"y  c #7E2E13",
"u  c #633216",
"i  c #6C3114",
"p  c #69361B",
"a  c #6D3C1D",
"s  c #733314",
"d  c #7A3415",
"f  c #7D3915",
"g  c #733318",
"h  c #703A1A",
"j  c #433524",
"k  c #453E2D",
"l  c #483B28",
"z  c #5A3624",
"x  c #5C3D24",
"c  c #533B28",
"v  c #543A34",
"b  c #613E24",
"n  c #7B3F22",
"m  c #36473D",
"M  c #3F4C3B",
"N  c #7E401F",
"B  c #45402F",
"V  c #48422E",
"C  c #4C4432",
"Z  c #43473D",
"A  c #4B4B3C",
"S  c #5F4634",
"D  c #5B4930",
"F  c #524F3E",
"G  c #5C553B",
"H  c #6A4226",
"J  c #654629",
"K  c #694C2D",
"L  c #74472A",
"P  c #714B2A",
"I  c #72522E",
"U  c #684434",
"Y  c #644C36",
"T  c #6B4F31",
"R  c #6F4D39",
"E  c #714638",
"W  c #724B3F",
"Q  c #6D5433",
"!  c #61563F",
"~  c #6D5638",
"^  c #695938",
"/  c #735533",
"(  c #775B37",
")  c #7D5A35",
"_  c #745D39",
"`  c #7C5D3A",
"'  c #7D6036",
"]  c #70613E",
"[  c #7B623D",
"{  c #373C41",
"}  c #2C4444",
"|  c #364841",
" . c #385142",
".. c #33534A",
"X. c #3B554C",
"o. c #2E5650",
"O. c #345551",
"+. c #375852",
"@. c #376556",
"#. c #3D6250",
"$. c #3E6955",
"%. c #376B5C",
"&. c #3B725E",
"*. c #397260",
"=. c #464941",
"-. c #47514B",
";. c #585A49",
":. c #6C4C48",
">. c #6B524B",
",. c #486B5A",
"<. c #4C7252",
"1. c #44735E",
"2. c #48795F",
"3. c #746042",
"4. c #7C6242",
"5. c #786846",
"6. c #7D6252",
"7. c #426060",
"8. c #407F66",
"9. c #823416",
"0. c #883617",
"q. c #823A16",
"w. c #8C3E17",
"e. c #813719",
"r. c #853D19",
"t. c #8C3D1A",
"y. c #923E19",
"u. c #9B3F1A",
"i. c #8F4516",
"p. c #84441B",
"a. c #8C431A",
"s. c #884A1D",
"d. c #984817",
"f. c #96421B",
"g. c #9D451D",
"h. c #9B4A1A",
"j. c #A24619",
"k. c #A54D1C",
"l. c #A94C1D",
"z. c #B74C1C",
"x. c #A6521A",
"c. c #AB541B",
"v. c #BA5B1E",
"b. c #944420",
"n. c #85473C",
"m. c #83693D",
"M. c #886B3D",
"N. c #C35F21",
"B. c #C06423",
"V. c #835B52",
"C. c #856B40",
"Z. c #8A6C43",
"A. c #836C48",
"S. c #8C7344",
"D. c #967441",
"F. c #947847",
"G. c #95764C",
"H. c #967A4B",
"J. c #9A7D4C",
"K. c #9C7D50",
"L. c #897766",
"P. c #468163",
"I. c #438368",
"U. c #55956C",
"Y. c #59986D",
"T. c #9F844D",
"R. c #A3854F",
"E. c #A48651",
"W. c #A68851",
"Q. c #AF8F55",
"!. c #AD8B5A",
"~. c #B5925E",
"^. c #B8945F",
"/. c #BC985F",
"(. c #BE9A60",
"). c #AC8C70",
"_. c #C29D62",
"`. c #C28C73",
"'. c #D8A587",
"]. c #E8B492",
/* pixels */
"^._._._._._._._._._._._.^.J.Z.C.D l ~ Z.!.(._._._._._._._._._.^.",
"_.T.Q.Q.T.T.Q.^.^.Q.T.H.m.x 7 4 M ..j p / K.~.^.^.^.^.^.Q.Q.Q._.",
"_.T.T.T.Q.Q.^.^.Q.T.E.m.b 6 e w k m 3 i.p.I F.Q.Q.Q.^.^.^.^.^._.",
"_.Q.T.Q.^.^.^.Q.Q.E.Z.H i s f.h.h 4 w d.c.p./ K.~.^.Q.Q.Q.T.T._.",
"_.^.^.^.^.Q.Q.^.^.K.K i d t.k.c.k.e w.f.x.k.a ' W.^.^.^.^.^.Q._.",
"_.Q.Q.Q.Q.^.^.^.^.S.c u d 9.y.j.k.e f.l.w.h.s ( !.Q.Q.Q.^.^.^._.",
"_.^.^.^.^.^.^.Q.Q.G.J h q.0.l.z.9.< t.v.q.f w ( !.^.^.^.Q.Q.Q._.",
"_.Q.Q.Q.Q.Q.Q.^.^.G.P a.y.u.B.N.y < q.v.f i 8 / R.Q.^.^.^.^.^._.",
"_.^.^.^.^.^.^.^.Q.S.J h r g s.s.t.t f x.f d w ( !.^.Q.Q.Q.^.^._.",
"_.^.^.^.Q.Q.Q.Q.^.G.x 2 o o o 3 t.t s f f r.w / R.^.^.^.^.Q.Q._.",
"_.T.D.D.D.T.T.T.T.C.q u 0 9 1 9 f.e i w 9.d 8 Q M.D.D.D.D.T.T._.",
"_.^.^._._._.^._.^.!.Z.P p.a.e e.g.f e e e w Q E.~._._._.^.^.^._.",
"_.^.^.Q.T.Q.^.Q.T.T.J.m.H e d 9.t.r.6 , 5 K J.~.^.^.Q.Q.Q.Q.Q._.",
"_.Q.T.T.^.^.Q.T.Q.Q.T.J.F.( z 5 6 7 3 X T E.Q.Q.^.^.^.^.^.^.^._.",
"_.^.Q.T.Q.^.^.^.T.Q.Q.Q.J.! m  .<.<.$.| 3.R.Q.^.^.^.^.^.Q.Q.Q._.",
"_.^.^.^.Q.Q.^.^.^.^.^.~.H.A o.&.U.Y.I.@. .A.!.^.^.Q.Q.T.T.Q.^._.",
"_.Q.Q.^.^.^.Q.Q.Q.Q.T.S.G ..%.8.U.1.&.P.#.5.!.Q.Q.^.^.^.^.^.^._.",
"_.^.^.Q.Q.^.^.^.^.^.~.G.F O.*.I.I.o.+.,.X.] E.^.^.^.Q.Q.Q.Q.Q._.",
"_.Q.^.^.^.Q.Q.Q.Q.Q.J.~ W ;.$.2.$.X.L.).>.4.!.^.Q.Q.^.^.^.^.^._.",
"_.T.Q.Q.Q.^.^.^.^.^.K.R n.E Y ^ C 6.'.].V.4.E.Q.^.^.^.Q.Q.Q.^._.",
"_.Q.T.T.Q.T.Q.Q.Q.Q.R.[ U v A ;.Z :.`.'.V.[ E.^.^.Q.T.T.T.Q.Q._.",
"_.D.D.D.D.T.D.T.T.T.T.S.Q c Z +...{ :.V.Y ' T.D.T.T.D.D.T.T.T._.",
"_.^.^._._._._._._._.(.K.) n L =.} % = S J./.^.^._._._._.^._.^._.",
"_.^.^.^.^.^.^.Q.Q.Q.E.` N g.b.z ; $ . Q E.Q.^.^.^.Q.Q.^.^.^.^._.",
"_.Q.Q.Q.Q.Q.^.^.^.Q.F.H y.g.f 2 * & @ _ !.^.^.Q.Q.Q.^.^.^.^.^._.",
"_.^.^.^.^.^.Q.Q.^.^.J.P q.r.e O # : @ [ !.Q.Q.Q.^.^.^.^.Q.Q.Q._.",
"_.^.Q.T.T.Q.^.Q.Q.Q.T.` a s w - > >   _ W.^.^.^.^.Q.T.T.Q.^.^._.",
"_.T.T.Q.Q.T.Q.^.^.^.Q.T.` 0 4 -.7.} * 4.!.^.^.T.Q.^.^.^.^.^.^._.",
"_.Q.T.T.Q.^.^.^.Q.Q.Q.^.!.( + } O.} V S.W.Q.T.Q.^.^.^.^.^.Q.T._.",
"_.^.^.^.^.^.^.Q.Q.^.^.Q.Q.S.l # > B H.~.^.^.Q.T.Q.Q.^.^.Q.T.Q._.",
"_.Q.Q.Q.Q.Q.Q.^.^.Q.Q.^.^.!.~ j l S.Q.Q.Q.^.^.^.^.Q.Q.^.^.^.Q._.",
"^._._._._._._._._._._._._._._._._._._._._._._._._._._._._._._.^."
};
