/* XPM */
static char *xpm_[] = {
/* columns rows colors chars-per-pixel */
"32 32 162 2 ",
"   c #161C1C",
".  c #3A1D12",
"X  c #3B2417",
"o  c #31231A",
"O  c #161E21",
"+  c #1C2A26",
"@  c #1A2B32",
"#  c #1F3237",
"$  c #1F353E",
"%  c #262225",
"&  c #3E3420",
"*  c #3E362F",
"=  c #262D30",
"-  c #223634",
";  c #2D3E3D",
":  c #501D0A",
">  c #47200F",
",  c #54230F",
"<  c #5B220E",
"1  c #432616",
"2  c #4A2514",
"3  c #482817",
"4  c #43281A",
"5  c #4A2B1A",
"6  c #532512",
"7  c #5C2712",
"8  c #572916",
"9  c #5A2A11",
"0  c #532E19",
"q  c #553016",
"w  c #5F3113",
"e  c #51371E",
"r  c #5B3519",
"t  c #622C13",
"y  c #6B2C11",
"u  c #6E2F18",
"i  c #732D14",
"p  c #7E2E13",
"a  c #623016",
"s  c #6D3112",
"d  c #60341A",
"f  c #6C361A",
"g  c #753314",
"h  c #793414",
"j  c #7D3915",
"k  c #733818",
"l  c #703A1A",
"z  c #462F23",
"x  c #443925",
"c  c #4E3823",
"v  c #443C2C",
"b  c #583626",
"n  c #543D23",
"m  c #573A27",
"M  c #5A3D24",
"N  c #513731",
"B  c #3B4737",
"V  c #33443B",
"C  c #394439",
"Z  c #564426",
"A  c #5A4426",
"S  c #5B432C",
"D  c #4B4433",
"F  c #4A4637",
"G  c #42473D",
"H  c #5C4E36",
"J  c #604123",
"K  c #644C2B",
"L  c #76442D",
"P  c #624D32",
"I  c #694E31",
"U  c #674338",
"Y  c #665231",
"T  c #6C5534",
"R  c #6D5937",
"E  c #6C5D3D",
"W  c #715C37",
"Q  c #735C3B",
"!  c #77603C",
"~  c #7B633D",
"^  c #373C41",
"/  c #2B4443",
"(  c #2E4941",
")  c #2D544E",
"_  c #365247",
"`  c #385142",
"'  c #365947",
"]  c #30534E",
"[  c #375752",
"{  c #3E6955",
"}  c #366758",
"|  c #3B725E",
" . c #397260",
".. c #464941",
"X. c #47514B",
"o. c #585A49",
"O. c #694C46",
"+. c #694C48",
"@. c #734F48",
"#. c #775249",
"$. c #7E574F",
"%. c #486B5A",
"&. c #4C7252",
"*. c #44735E",
"=. c #48795F",
"-. c #7B6340",
";. c #7D6252",
":. c #407F66",
">. c #823416",
",. c #883617",
"<. c #823A16",
"1. c #813719",
"2. c #873F19",
"3. c #8C3D1A",
"4. c #933E19",
"5. c #9B3F1A",
"6. c #8D4216",
"7. c #89431B",
"8. c #884A1D",
"9. c #984817",
"0. c #96421A",
"q. c #9C441D",
"w. c #A24619",
"e. c #A44C1B",
"r. c #A94C1D",
"t. c #B74C1C",
"y. c #A6521A",
"u. c #AA531A",
"i. c #BA5B1E",
"p. c #944420",
"a. c #80663F",
"s. c #836A3D",
"d. c #C35F21",
"f. c #C06423",
"g. c #846B43",
"h. c #877042",
"j. c #8C7244",
"k. c #967441",
"l. c #937847",
"z. c #92754B",
"x. c #967A4B",
"c. c #9A7C4F",
"v. c #9C7E51",
"b. c #897766",
"n. c #438368",
"m. c #55956C",
"M. c #9F844D",
"N. c #A2854F",
"B. c #A48453",
"V. c #A78851",
"C. c #AF8F55",
"Z. c #AD8B5A",
"A. c #B18E5B",
"S. c #B4915D",
"D. c #B8945F",
"F. c #BC985F",
"G. c #BE9A60",
"H. c #AC8C70",
"J. c #C29D62",
"K. c #C28C73",
"L. c #D6A486",
"P. c #E8B492",
/* pixels */
"D.J.J.J.J.J.J.J.G.J.G.C.g.Y * n -.g.c.G.J.J.J.J.J.J.J.J.J.J.J.D.",
"J.M.C.C.N.M.C.D.G.C.s.Z q & ' B 1 2 n g.A.D.D.D.D.D.D.D.C.C.C.J.",
"J.M.M.M.C.C.D.D.C.s.K k 6.4 C v t y , e ! N.C.C.C.C.D.D.D.D.D.J.",
"J.C.M.C.D.D.S.C.x.K k u.9.t 5 l q.0.h 7 m g.Z.G.D.D.C.C.C.M.N.J.",
"J.D.D.D.D.C.C.Z.! d e.y.0.,.y r.u.e.,.h t A j.Z.C.D.D.D.D.D.C.J.",
"J.C.C.C.C.D.D.Z.T s 9.6.r.4.y e.w.4.>.h t c z.G.D.C.C.C.D.D.D.J.",
"J.D.D.D.D.D.D.N.Y 9 j <.i.,.< >.t.r.,.<.k n z.G.D.D.D.D.C.C.C.J.",
"J.C.C.C.C.C.C.Z.T , s j i.<.< p f.f.5.4.7.A j.C.C.C.D.D.D.D.D.J.",
"J.D.D.D.F.D.D.C.Y 7 h j y.j i 3.8.8.k i f M k.D.D.D.C.C.C.F.D.J.",
"J.D.D.D.C.C.C.N.T t ,.j j g i 3.3 X X X 2 e j.C.C.D.F.J.F.C.C.J.",
"J.M.k.k.s.V.M.x.Y 2 h >.y s u 0.0 4 0 r a e a.c.s.k.s.k.s.N.v.J.",
"J.D.D.J.J.J.D.J.c.I 6 y y s j q.1.y 6.j A j.A.J.J.J.J.J.F.D.D.J.",
"J.D.D.C.M.C.D.C.N.j.Z > : 9 2.3.>.i t b g.V.C.F.D.D.C.C.C.C.C.J.",
"J.C.M.M.D.D.C.M.C.C.j.Z . 4 8 7 6 5 W c.C.D.C.C.D.D.D.D.J.F.D.J.",
"J.D.C.N.C.D.D.D.M.C.N.T V { &.&.` V H B.D.C.C.D.D.D.D.D.C.C.C.J.",
"J.D.D.D.C.C.D.D.D.Z.g.C } n.m.m.| ) F j.C.D.D.D.D.C.C.N.c.C.D.J.",
"J.C.C.D.D.D.C.C.C.B.Y ' :. .*.m. .} ( H v.J.D.C.C.D.D.D.D.F.D.G.",
"J.D.D.C.C.D.D.D.G.Z.Q _ %.[ ] :.n. .[ F z.Z.Z.D.D.D.C.C.C.C.C.J.",
"J.C.D.D.D.C.C.C.Z.B.R +.H.b.[ %.=.} o.U K v.D.F.C.C.D.D.D.D.D.J.",
"J.M.C.C.C.D.D.D.S.Z.Q $.P.L.;.D E O.O.8.K c.C.C.D.D.D.C.C.C.D.J.",
"J.C.M.M.C.M.C.C.C.N.! @.L.K.+...o.F N m Q V.C.F.G.C.N.V.v.C.C.J.",
"J.k.k.k.k.N.k.M.M.M.! S #.+.^ ] [ B z A g.k.V.s.N.V.s.s.N.N.N.J.",
"J.D.D.J.J.J.J.J.J.G.F.x.S % # / ..L l I B.G.D.D.J.J.J.J.D.J.D.J.",
"J.D.D.D.D.D.D.C.C.Z.F.A.Q   @ = b p.q.f T v.D.D.F.C.C.D.D.D.D.J.",
"J.C.C.C.C.C.D.D.D.C.C.V.! O $ + 2 j q.4.J c.D.C.C.C.D.D.D.D.D.J.",
"J.D.D.D.F.D.C.C.D.D.D.A.W O $ @ . y 7.j J s.C.C.D.D.D.S.C.C.C.J.",
"J.D.C.M.M.C.D.C.C.C.C.C.!   - ^ * r y r W V.D.D.D.C.N.N.C.D.D.J.",
"J.M.M.C.C.M.C.D.D.S.C.V.~ + ^ [ X.4 0 W V.D.D.M.C.D.D.D.F.D.D.J.",
"J.C.M.M.C.D.D.D.C.C.C.S.z.D ; ] / o T N.C.C.N.C.D.D.D.D.S.C.N.G.",
"J.D.D.D.D.D.D.C.C.D.D.C.C.~ x - + x v.F.D.D.C.N.C.C.D.D.C.N.C.J.",
"J.C.C.C.C.C.C.D.D.C.C.D.D.S.z.x & P N.C.C.D.D.D.D.C.C.D.D.D.C.J.",
"D.J.J.J.J.J.J.J.J.J.J.J.J.J.J.J.J.J.J.J.J.J.J.J.J.J.J.J.J.J.J.D."
};
