/* XPM */
static char *_8e41909d5a241b88dc0458b1d83dfabhw6KnJHgVtWHqnID[] = {
/* columns rows colors chars-per-pixel */
"32 32 175 2 ",
"   c #161514",
".  c #16191B",
"X  c #1A1A18",
"o  c #3E1C10",
"O  c #35261C",
"+  c #382A1D",
"@  c #282A27",
"#  c #252B2A",
"$  c #3D2D24",
"%  c #342E29",
"&  c #2E3029",
"*  c #3F3023",
"=  c #3C3B2F",
"-  c #263233",
";  c #333D3A",
":  c #521E0D",
">  c #52220F",
",  c #5B220D",
"<  c #4B2513",
"1  c #452917",
"2  c #4A2618",
"3  c #422819",
"4  c #492818",
"5  c #542514",
"6  c #5E2E16",
"7  c #542E1B",
"8  c #62270F",
"9  c #602710",
"0  c #692711",
"q  c #622A11",
"w  c #6D2D12",
"e  c #702E11",
"r  c #6E3113",
"t  c #66361A",
"y  c #6C3718",
"u  c #733313",
"i  c #7A3115",
"p  c #7D3A15",
"a  c #72361C",
"s  c #433324",
"d  c #493323",
"f  c #413A2A",
"g  c #52312A",
"h  c #603721",
"j  c #603A22",
"k  c #693D25",
"l  c #773F23",
"z  c #6B3C3B",
"x  c #2E413F",
"c  c #3C423B",
"v  c #43412E",
"b  c #4B432E",
"n  c #51422B",
"m  c #484035",
"M  c #4E4A31",
"N  c #4D443C",
"B  c #40483E",
"V  c #574134",
"C  c #554830",
"Z  c #5D4E34",
"A  c #54503C",
"S  c #58503C",
"D  c #6D4126",
"F  c #704526",
"G  c #7E4520",
"H  c #784D2C",
"J  c #614830",
"K  c #73433D",
"L  c #77493A",
"P  c #645436",
"I  c #6C5B37",
"U  c #635239",
"Y  c #68583E",
"T  c #7E5131",
"R  c #7B5738",
"E  c #7C643B",
"W  c #2D4044",
"Q  c #2A4B4D",
"!  c #3D4D42",
"~  c #33474A",
"^  c #3F4C48",
"/  c #2E504C",
"(  c #3B554E",
")  c #2D4D50",
"_  c #2C5351",
"`  c #2F5855",
"'  c #345E50",
"]  c #3A5C52",
"[  c #336257",
"{  c #396656",
"}  c #376C5D",
"|  c #367161",
" . c #3A7562",
".. c #3F7E66",
"X. c #5F4340",
"o. c #5B4A46",
"O. c #584F4A",
"+. c #4A5046",
"@. c #435B47",
"#. c #41534D",
"$. c #485D4F",
"%. c #4A5B50",
"&. c #6D5D42",
"*. c #7A5542",
"=. c #735C4B",
"-. c #725C53",
";. c #54734F",
":. c #5F6150",
">. c #43775D",
",. c #577251",
"<. c #5F7A54",
"1. c #62634D",
"2. c #766747",
"3. c #427D65",
"4. c #813C15",
"5. c #883817",
"6. c #82371B",
"7. c #84381A",
"8. c #8A3D19",
"9. c #973F1C",
"0. c #854218",
"q. c #8B4319",
"w. c #924617",
"e. c #93451B",
"r. c #93481A",
"t. c #9B4C19",
"y. c #A44A1E",
"u. c #AA4C1E",
"i. c #AC531E",
"p. c #B2551F",
"a. c #BB5E1D",
"s. c #944724",
"d. c #994420",
"f. c #A54920",
"g. c #B95621",
"h. c #BD5821",
"j. c #826239",
"k. c #C1631E",
"l. c #C35E21",
"z. c #C56220",
"x. c #A35443",
"c. c #A85D49",
"v. c #836D43",
"b. c #8E6E47",
"n. c #946D45",
"m. c #89714B",
"M. c #967441",
"N. c #957B4A",
"B. c #9C7B4A",
"V. c #82685A",
"C. c #847650",
"Z. c #8E7C56",
"A. c #9B7D51",
"S. c #AF614F",
"D. c #A27C4F",
"F. c #C5634B",
"G. c #C96A4F",
"H. c #D17458",
"J. c #52825D",
"K. c #688355",
"L. c #498566",
"P. c #4B8A69",
"I. c #54946C",
"U. c #5B9B6D",
"Y. c #9F844D",
"T. c #9C8456",
"R. c #A68751",
"E. c #A68553",
"W. c #AF8F55",
"Q. c #A6885B",
"!. c #AD8B5A",
"~. c #B08C59",
"^. c #B5925E",
"/. c #B8945F",
"(. c #C29D62",
/* pixels */
"/.(.(.(.(.(.(.(.(.(.(.(.(.(.(.(.(.(.(.(.(.(.(.(.(.(.(.(.(.(.(./.",
"(.Y.W.W.Y.Y.W././.W.Y.Y.W./././././././././././././././.W.W.W.(.",
"(.Y.Y.Y.W.W././.W.Y.W.W./././.n.H B.W.W.W.W.W.W.W.W./././././.(.",
"(.W.Y.W./././.W.W.W././.D.F D b ! J D T ~./././././.W.W.W.Y.Y.(.",
"(././././.W.W././././.B.G w., = ' 3 , r H R.W.W.W./././././.W.(.",
"(.W.W.W.W././././.W.B.l 8.e u 6 2 u 8 w 7.T ~././.W.W.W./././.(.",
"(././././././.W.W.!.k 8.0 i h.4.5.l.u.0 i 6.R /././././.W.W.W.(.",
"(.W.W.W.W.W.W././.!.s q u h.l.i t.g.l.u.i a Z W.W.W./././././.(.",
"(./././././././.W.R.$ > t.z.e.u 9.e.u.a.w < U /././.W.W.W././.(.",
"(./././.W.W.W.W./.!.* q t.a.0.u 9.e.r.k.p o Z W.W././././.W.W.(.",
"(.Y.M.M.M.Y.Y.Y.Y.N.+ q r.i.0.u 9.e.q.p.4.< n Y.M.M.M.M.M.Y.Y.(.",
"(././.(.(.(./.(./.!.s q e.y.0.u 9.e.q.f.p o U (./.(.(.(./././.(.",
"(././.W.Y.W./.W.Y.Y.E 6 u q.0.u 4.q.0.8.q j B./././.W.W.W.W.W.(.",
"(.W.Y.Y././.W.Y.W.W.Y.j.5 r 4.u u 4.p q h R.W.W./././././././.(.",
"(./.W.Y.W./././.Y.W.W.C.c 7 8 : , q 9 d +.T.W./././././.W.W.W.(.",
"(./././.W.W././././.Q.#.>.;.b f s v M J.{ :.^././.W.W.Y.Y.W./.(.",
"(.W.W./././.W.W.W.W.2.] L.3.U.I.P.U.I.3.3.%.T.W.W././././././.(.",
"(././.W.W././././.!.#._ [ ` P.I.I.I.3._ [ Q 1./././.W.W.W.W.W.(.",
"(.W./././.W.W.W.W.R.o.V.O.Q  .3.3...} ~ -.-.=./.W.W./././././.(.",
"(.Y.W.W.W././././.!.K H.x.$ n I I P s g G.S.*.W./././.W.W.W./.(.",
"(.W.Y.Y.W.Y.W.W.W.R.K F.c.; @.<.K.,.! N G.x.*././.W.Y.Y.Y.W.W.(.",
"(.M.M.M.M.Y.M.Y.Y.Y.b.K X.[  .[ / } | ( z L N.M.Y.Y.M.M.Y.Y.Y.(.",
"(././.(.(.(.(.(.(.(.(.!.Z.( ^ # . ; ^ $.!./././.(.(.(.(./.(./.(.",
"(././././././.W.W.W././.Z.V s.1   t s.N R.W./././.W.W././././.(.",
"(.W.W.W.W.W./././.W.W.W.m.7 y.1   y d.s !././.W.W.W./././././.(.",
"(./././././.W.W./././.!.C 4 8.3   q 8.O 2.W.W.W././././.W.W.W.(.",
"(./.W.Y.Y.W./.W.W.W.W.A.@ B S %   m A ; f ^./././.W.Y.Y.W././.(.",
"(.Y.Y.W.W.Y.W./././.W.R.&.x ) - X W Q c m.^./.Y.W././././././.(.",
"(.W.Y.Y.W./././.W.W.W./.!.Y # Z v.= & v.W.W.Y.W./././././.W.Y.(.",
"(././././././.W.W././.W.W.N.N.Q./.A.A.^././.W.Y.W.W././.W.Y.W.(.",
"(.W.W.W.W.W.W././.W.W././././.W.W.W.W.W.W././././.W.W./././.W.(.",
"/.(.(.(.(.(.(.(.(.(.(.(.(.(.(.(.(.(.(.(.(.(.(.(.(.(.(.(.(.(.(./."
};
