/* XPM */
static char *d441f273d8254e1d972b190f79f6dda5Bsy9Ul88UDIhWUPd[] = {
/* columns rows colors chars-per-pixel */
"32 32 13 1 ",
"  c #1E1E1E",
". c #20232D",
"X c #2D2D2D",
"o c #2A2E3C",
"O c #363B4D",
"+ c #494949",
"@ c gray38",
"# c #967441",
"$ c #9F844D",
"% c #AF8F55",
"& c #B8945F",
"* c #C29D62",
"= c #8B8989",
/* pixels */
"&********====X+====+XXX********&",
"*$%%$$%&=+@@XX==@+@@XX=X&&&&%%%*",
"*$$$%%==++=+@X+++@ +X+=+XX&&&&&*",
"*%$%&=X+@@=@ XXXXXXXXX++@+X%%$$*",
"*&&&=+XXXXXX X.......XX++++X&&%*",
"*%%%=+==X..........O..XXX@+X&&&*",
"*&&=++  X......oooooo...XXXXX%%*",
"*%X=@@+XX..OooOooooooo....X++X&*",
"*&=XXX X...ooo.......Oo..XX++X&*",
"*&X=+XXX..oo...O.O.......X=++X%*",
"*X@=XXX.Ooo....Oooo......X=+@+X*",
"*X+@X....oo...ooooooooO..XXX+ X*",
"*X+ X...oo...oo......oo....XXXX*",
"*X@XX...oo..OOo...O...O....X=+X*",
"*XXXX...oo...Oo.Ooo...o....X+ X*",
"*X=+X..OOO...oooooOO..o....XX X*",
"*X=@XX..Oo....ooooo..ooO.XXX+XX*",
"*X=+@XX.oo.....OO....oo..X=++ X*",
"*%X++ X..Oo........ooOO..X=+ X&*",
"*$X@+X...ooo......Ooo....X++ X&*",
"*%X+ X.....oooOooooo...XX=+@ X%*",
"*##X@X......oOooooo..XXXX++ X$$*",
"*&&*XXXXXX...O..O...XX==XXXX&*&*",
"*&&&X@==+XX.........X==+++ X&&&*",
"*%%%%X@++@XX..XXX...X=@+  X&&&&*",
"*&&&&&XX++ XXXX=XXXXX + XX&&%%%*",
"*&%$$%&%X  X==@+++ XX  X&%$$%&&*",
"*$$%%$%&&XXX++@++ ++ XX$%&&&&&&*",
"*%$$%&&&%%%&XXXXXXXX%%$%&&&&&%$*",
"*&&&&&&%%&&%%$&&&&&&&&%$%%&&%$%*",
"*%%%%%%&&%%&&&&%%%%%%&&&&%%&&&%*",
"&******************************&"
};
