/* XPM */
static char *xpm_[] = {
/* columns rows colors chars-per-pixel */
"32 32 8 1 ",
"  c gray43",
". c #585858",
"X c #4B4C4F",
"o c #414141",
"O c #383737",
"+ c #2D2D2D",
"@ c gray14",
"# c gray10",
/* pixels */
".    XO.                o. O+o.+",
" .... OX.................oO..+o+",
" ..... O........XX.X.......Xo+O@",
" ......OX........XX.........+.O+",
" ....XXXOX...XXXoOOOo..XXO.XX.o@",
" .X.X..XXO.X..XoOoX.OO.XOXXoXXo@",
" ..XXXX.XXOO.oOOX..XX.OOoXooXoo@",
" .X.XX..XoOXOOX.XX..XXo@oXXXoOo@",
" .OXX.XXo+XooXooX.XXooXo@oXoOOo@",
".XOOXXoO+OoXoooXXOooXoO+@OooOoO#",
".XOoOOO@+oOoOOooO@XoO@@@+@+OOo@#",
"XXOOoX@OoOOOOo++@#+O@+ooOO@+###@",
"XooOOo+@ooOO@+oOO+#O@OOO+OO@+O@@",
"XoOOoOO@OO+@+OOOoO#@##++OO+@++@@",
"oooOOO##++@#++OO+O+@@###@++#+@@+",
"++@++@#@++#+@@@@@@+#+@@+@@#@@@+@",
"    .O+.  OX  .@. XO.     X     ",
".......O .XO..X@ .O.......X....X",
"X....X.O...XOXo@XO. .......Xo.Xo",
"o.X.XXXo...XXOO#OO .......XX.oo.",
".oXXX+ooOX..XXO#. .X....XX....X.",
"..+o+o..XOo..Xo@ .XX.X.XXoX.....",
".Xo+oXXX.o+oXXo@ ..XXo++Xoo+o.X.",
"XoO+XoXoX.o++oo@ .XXOOoo+X+X...X",
"Xo+OooooXXX.o+o#OXoOo.X.o+X.XX..",
"oXo+oooXXoXXoX@##OO..oXXX@oXX..X",
"oo+#+OoooXooooO@o.XoXooXoX@oXXXX",
"oO#@oooOooOOoOO@.XooOoXoooO@oXoo",
"+@#+OOooOOoOOO+@.oXoOOooOoOOoooo",
"oO@#+oo++OOoO++@XooOOOoooOOooOOo",
"OO+@#+O+OO+++O+@oOOOOOOoOOOOOOOO",
"@+++###@@@@+@@@+@@@@+@@+@+++++@@"
};
